# This file uses centimeters as units for non-parametric coordinates.

mtllib star.mtl
g default
v -0.601561 -1.487825 -0.031773
v -0.576685 -1.551639 -0.065862
v -0.523106 -1.589425 -0.032280
v -0.523662 -1.589431 0.039865
v -0.576499 -1.552044 0.071855
v -0.601394 -1.485302 0.043595
v -0.595779 -0.884978 -0.719533
v -0.569315 -0.874805 -0.790359
v -0.515592 -0.919367 -0.814584
v -0.517930 -0.988291 -0.792158
v -0.571431 -1.007890 -0.748151
v -0.596107 -0.957735 -0.698553
v 0.575309 -0.968745 -0.699229
v 0.548795 -1.021377 -0.746894
v 0.494841 -0.998706 -0.792045
v 0.497279 -0.929475 -0.813394
v 0.551025 -0.887981 -0.789479
v 0.576861 -0.895602 -0.719175
v 0.567791 -1.506276 0.043552
v 0.540591 -1.572961 0.073114
v 0.485283 -1.609061 0.040112
v 0.486011 -1.608437 -0.032018
v 0.540433 -1.572913 -0.063574
v 0.566659 -1.509138 -0.031949
v -0.036622 -2.526897 -1.350947
v -0.094960 -2.481375 -1.373662
v -0.035980 -2.469997 -1.422293
v 0.022947 -2.483331 -1.373728
v -0.586798 -0.072477 0.487611
v -0.558785 -0.039411 0.551321
v -0.505910 0.010694 0.547117
v -0.507761 0.054528 0.487311
v -0.559658 0.044025 0.440089
v -0.586363 -0.025496 0.428658
v -0.585142 -0.955940 0.708300
v -0.559401 -1.009438 0.755427
v -0.505263 -0.987884 0.800228
v -0.504645 -0.918309 0.821311
v -0.557713 -0.876076 0.797465
v -0.585271 -0.882512 0.727377
v 0.587752 -0.894988 0.725212
v 0.561043 -0.885536 0.796292
v 0.507408 -0.929382 0.820417
v 0.506893 -0.998843 0.798159
v 0.559420 -1.020253 0.754254
v 0.585819 -0.968896 0.707197
v 0.585602 -0.025757 0.428948
v 0.559237 0.045317 0.437787
v 0.506599 0.055349 0.487077
v 0.508221 0.010683 0.546290
v 0.560037 -0.037654 0.549291
v 0.586386 -0.073837 0.487301
v 0.016208 0.032948 2.148644
v -0.043283 -0.016766 2.141144
v 0.016244 -0.054167 2.175547
v 0.074613 -0.016831 2.142628
v -0.038885 -2.481907 1.420956
v -0.098122 -2.493466 1.372614
v -0.040535 -2.538836 1.349405
v 0.019866 -2.495116 1.372149
v -0.586338 -0.025440 -0.424301
v -0.559232 0.045333 -0.437782
v -0.506774 0.055226 -0.487112
v -0.507975 0.009999 -0.546033
v -0.560158 -0.038006 -0.549080
v -0.586468 -0.069367 -0.485604
v 0.584901 -0.070192 -0.485466
v 0.558801 -0.040431 -0.550999
v 0.506749 0.009998 -0.547087
v 0.507940 0.054402 -0.487347
v 0.559664 0.044007 -0.440097
v 0.585601 -0.025755 -0.424526
v 0.000000 1.602851 -0.045694
v -0.058868 1.582240 -0.000000
v -0.000000 1.602851 0.045694
v 0.058868 1.582240 0.000000
v 0.001942 -0.079014 -2.181802
v -0.057105 -0.041017 -2.147937
v 0.002865 0.008571 -2.157557
v 0.061032 -0.041058 -2.149761
v -0.839051 -0.642100 -0.033555
v -0.840207 -0.712060 -0.010922
v -0.839134 -0.712380 0.062119
v -0.838118 -0.641982 0.083739
v -0.838480 -0.598328 0.025286
v 0.827129 -0.606819 0.025180
v 0.826919 -0.651238 0.083576
v 0.826517 -0.721610 0.062136
v 0.826363 -0.721519 -0.011183
v 0.826914 -0.651144 -0.033230
vt 0.312326 0.460605
vt 0.260506 0.500000
vt 0.261456 0.509961
vt 0.478197 0.956395
vt 0.742456 0.500000
vt 0.738253 0.512206
vt 0.632627 0.500000
vt 0.383627 0.512059
vt 0.364020 0.500000
vt 0.371114 0.509634
vt 0.259390 0.500000
vt 0.312326 0.460605
vt 0.312326 0.460605
vt 0.312326 0.460605
vt 0.260103 0.500000
vt 0.364769 0.500000
vt 0.258712 0.517425
vt 0.261595 0.510051
vt 0.478402 0.956805
vt 0.382408 0.500000
vt 0.383676 0.513020
vt 0.480625 0.948299
vt 0.562326 0.460605
vt 0.509353 0.500000
vt 0.506525 0.510054
vt 0.494272 0.954266
vt 0.627176 0.512993
vt 0.517111 0.954363
vt 0.614940 0.500000
vt 0.616317 0.509697
vt 0.510213 0.500000
vt 0.562326 0.460605
vt 0.562326 0.460605
vt 0.562326 0.460605
vt 0.511061 0.500000
vt 0.615786 0.500000
vt 0.506416 0.509904
vt 0.494253 0.954056
vt 0.627586 0.512057
vt 0.517180 0.954186
vt 0.506454 0.948373
vt 0.312326 0.460605
vt 0.383481 0.512689
vt 0.364983 0.500000
vt 0.371146 0.509693
vt 0.260549 0.500000
vt 0.312326 0.460605
vt 0.312326 0.460605
vt 0.312326 0.460605
vt 0.258531 0.517062
vt 0.261566 0.510071
vt 0.480616 0.948314
vt 0.478114 0.956227
vt 0.562326 0.460605
vt 0.562326 0.460605
vt 0.562326 0.460605
vt 0.627208 0.512892
vt 0.517207 0.954176
vt 0.506453 0.948216
vt 0.562326 0.460605
vt 0.562326 0.460605
vt 0.562326 0.460605
vt 0.509982 0.500000
vt 0.506519 0.510062
vt 0.494288 0.954306
vt 0.312326 0.460605
vt 0.312326 0.460605
vt 0.312326 0.460605
vt 0.261552 0.510067
vt 0.480660 0.948427
vt 0.478343 0.956685
vt 0.742745 0.500000
vt 0.738164 0.512888
vt 0.632397 0.500000
vt 0.383441 0.512624
vt 0.480505 0.948017
vt 0.562326 0.460605
vt 0.562326 0.460605
vt 0.562326 0.460605
vt 0.506533 0.510071
vt 0.506431 0.948565
vt 0.494322 0.954556
vt 0.627130 0.512653
vt 0.517135 0.954306
vt 0.506447 0.948427
vt 0.371110 0.509695
vt 0.494461 0.513250
vt 0.616351 0.509621
vt 0.494350 0.512204
vt 0.616270 0.509641
vt 0.737980 0.513095
vt 0.494593 0.512923
vt 0.616301 0.509688
vt 0.371131 0.509684
vt 0.494599 0.512913
vt 0.737852 0.513235
vt 0.312326 0.460605
vt 0.312326 0.460605
vt 0.562326 0.460605
vt 0.562326 0.460605
vt 0.312326 0.460605
vt 0.312326 0.460605
vt 0.258236 0.516473
vt 0.252331 0.504661
vt 0.250000 0.500000
vt 0.254901 0.500000
vt 0.371782 0.500000
vt 0.375000 0.500000
vt 0.376634 0.506534
vt 0.365461 0.500000
vt 0.500000 0.500000
vt 0.492741 0.500000
vt 0.496954 0.500000
vt 0.499009 0.500000
vt 0.619997 0.500000
vt 0.625000 0.500000
vt 0.623853 0.504587
vt 0.614488 0.500000
vt 0.258476 0.516952
vt 0.252501 0.505001
vt 0.250000 0.500000
vt 0.254335 0.500000
vt 0.620639 0.500000
vt 0.625000 0.500000
vt 0.623727 0.505093
vt 0.614476 0.500000
vt 0.340685 0.474898
vt 0.331057 0.493448
vt 0.095209 0.423638
vt 0.097083 0.403231
vt 0.355273 0.476122
vt 0.368036 0.493535
vt 0.364978 0.507284
vt 0.344736 0.510612
vt 0.073830 0.429192
vt 0.058254 0.415471
vt 0.064530 0.402427
vt 0.084787 0.396288
vt 0.347278 0.012009
vt 0.361753 0.009825
vt 0.336389 0.001992
vt 0.413982 0.108947
vt 0.411230 0.088252
vt 0.650315 0.018982
vt 0.660850 0.037031
vt 0.401216 0.115971
vt 0.380992 0.109491
vt 0.374759 0.096707
vt 0.389712 0.083006
vt 0.664314 0.001992
vt 0.685008 0.004566
vt 0.687928 0.018917
vt 0.674924 0.036157
vt 0.666913 0.500943
vt 0.656042 0.510528
vt 0.681406 0.502695
vt 0.925608 0.980768
vt 0.630336 0.980527
vt 0.782355 0.514230
vt 0.629797 0.997940
vt 0.925136 0.998008
vt 0.066299 0.879629
vt 0.046042 0.879809
vt 0.042851 0.585111
vt 0.063075 0.584962
vt 0.317901 0.727968
vt 0.343367 0.531235
vt 0.328892 0.548556
vt 0.318003 0.531225
vt 0.328873 0.514230
vn -0.939186 -0.297929 -0.170786
vn -0.934893 -0.301579 0.187149
vn -0.943730 -0.248694 0.218004
vn -0.950848 -0.241581 -0.193719
vn -0.939186 -0.319720 -0.125337
vn -0.935561 -0.238396 -0.260563
vn -0.939210 -0.189636 -0.286223
vn -0.677173 -0.698513 0.231337
vn -0.657367 -0.707150 0.260397
vn -0.657367 -0.707150 0.260397
vn -0.019143 -0.999807 -0.004536
vn -0.019143 -0.999807 -0.004536
vn -0.019143 -0.999806 -0.004536
vn -0.019143 -0.999807 -0.004536
vn -0.942162 -0.308176 0.131748
vn -0.679424 -0.694753 -0.236011
vn -0.659733 -0.702816 -0.266087
vn -0.659733 -0.702816 -0.266087
vn -0.938773 -0.178239 0.294849
vn -0.927131 -0.245826 0.282839
vn -0.929309 0.061577 -0.364132
vn -0.942750 0.105994 -0.316208
vn -0.934312 0.007390 -0.356380
vn -0.929225 0.163298 -0.331472
vn -0.932432 0.201762 -0.299772
vn -0.676411 -0.470571 -0.566597
vn -0.657669 -0.505097 -0.558881
vn -0.657669 -0.505097 -0.558881
vn -0.002446 -0.301968 -0.953315
vn -0.002446 -0.301968 -0.953315
vn -0.002446 -0.301968 -0.953315
vn -0.002446 -0.301968 -0.953315
vn -0.669589 0.076397 -0.738792
vn -0.649661 0.108982 -0.752372
vn -0.649661 0.108982 -0.752372
vn 0.929658 -0.259838 -0.261190
vn 0.930044 0.041210 -0.365131
vn 0.943755 0.085959 -0.319277
vn 0.945183 -0.260900 -0.196370
vn 0.931459 -0.216628 -0.292330
vn 0.932126 -0.317491 -0.174185
vn 0.928886 -0.345861 -0.132477
vn 0.671163 0.055012 -0.739265
vn 0.652678 0.087406 -0.752577
vn 0.652678 0.087406 -0.752577
vn 0.935288 -0.013050 -0.353646
vn 0.664426 -0.488311 -0.565765
vn 0.644666 -0.522642 -0.557899
vn 0.644666 -0.522642 -0.557899
vn 0.937120 0.181185 -0.298294
vn 0.931718 0.143610 -0.333583
vn 0.931322 -0.324926 0.164508
vn 0.943960 -0.267408 0.193475
vn 0.926727 -0.353877 0.126284
vn 0.927721 -0.269150 0.258635
vn 0.930570 -0.226659 0.287515
vn 0.651225 -0.721335 -0.235760
vn 0.630751 -0.729406 -0.264804
vn 0.630751 -0.729406 -0.264804
vn 0.651655 -0.722812 0.229976
vn 0.630916 -0.731303 0.259116
vn 0.630916 -0.731303 0.259116
vn -0.920291 0.165261 0.354617
vn -0.924000 0.378083 0.057245
vn -0.937853 0.347020 0.002966
vn -0.932169 0.105873 0.346197
vn -0.931511 0.195357 0.306794
vn -0.918459 0.058861 0.391113
vn -0.930883 0.001492 0.365314
vn -0.672315 0.705714 0.223517
vn -0.653714 0.729204 0.202286
vn -0.653714 0.729204 0.202286
vn -0.000008 0.802467 0.596696
vn -0.000008 0.802467 0.596696
vn -0.000008 0.802467 0.596696
vn -0.000008 0.802467 0.596696
vn -0.934709 0.340734 0.101094
vn -0.671709 0.410893 0.616420
vn -0.652695 0.397514 0.644959
vn -0.652695 0.397514 0.644959
vn -0.934538 0.340901 -0.102106
vn -0.925390 0.374736 -0.056801
vn -0.668861 0.077211 0.739367
vn -0.649939 0.110122 0.751966
vn -0.649938 0.110122 0.751966
vn -0.001842 -0.297591 0.954692
vn -0.001842 -0.297591 0.954692
vn -0.001842 -0.297590 0.954692
vn -0.001842 -0.297591 0.954692
vn -0.668995 -0.467620 0.577734
vn -0.650144 -0.502122 0.570251
vn -0.650144 -0.502122 0.570251
vn 0.925743 0.052232 0.374529
vn 0.938436 0.099052 0.330948
vn 0.936543 -0.003565 0.350534
vn 0.927319 0.159300 0.338679
vn 0.937711 0.190440 0.290570
vn 0.672134 -0.472126 0.570380
vn 0.653462 -0.505914 0.563062
vn 0.653462 -0.505914 0.563062
vn 0.670722 0.046045 0.740279
vn 0.652233 0.076985 0.754099
vn 0.652233 0.076985 0.754099
vn 0.929960 0.363491 0.055217
vn 0.944537 0.328405 0.001003
vn 0.934939 0.339964 0.101558
vn 0.932045 0.357878 -0.056696
vn 0.935075 0.339659 -0.101321
vn 0.675225 0.410387 0.612906
vn 0.655935 0.397110 0.641913
vn 0.655935 0.397110 0.641913
vn 0.675277 0.706370 0.212235
vn 0.655606 0.730633 0.190673
vn 0.655606 0.730633 0.190673
vn -0.675267 0.410842 -0.612555
vn -0.656351 0.397147 -0.641465
vn -0.656352 0.397147 -0.641465
vn -0.000058 0.797945 -0.602730
vn -0.000058 0.797945 -0.602730
vn -0.000058 0.797945 -0.602730
vn -0.000058 0.797945 -0.602730
vn -0.668935 0.708185 -0.225831
vn -0.649201 0.732178 -0.206041
vn -0.649201 0.732178 -0.206041
vn 0.680606 0.696476 -0.227369
vn 0.661588 0.720744 -0.206953
vn 0.661588 0.720744 -0.206953
vn 0.673198 0.409657 -0.615619
vn 0.653121 0.397553 -0.644503
vn 0.653121 0.397552 -0.644503
vn -0.954968 -0.228407 -0.189383
vn 0.004139 0.392492 -0.919746
vn 0.004139 0.392493 -0.919746
vn 0.004139 0.392492 -0.919746
vn 0.946527 -0.256614 -0.195540
vn -0.015554 -0.817630 0.575534
vn -0.015554 -0.817630 0.575534
vn -0.015554 -0.817630 0.575534
vn -0.947853 0.088833 0.306077
vn -0.008729 -0.841439 0.540282
vn -0.008729 -0.841439 0.540282
vn -0.008729 -0.841439 0.540282
vn 0.953405 0.085422 0.289347
vn 0.000000 0.999904 -0.013894
vn 0.000000 0.999904 -0.013894
vn 0.000000 0.999904 -0.013894
vn -0.956619 -0.216066 0.195437
vn -0.015660 -0.812251 -0.583098
vn -0.015660 -0.812251 -0.583098
vn -0.015660 -0.812251 -0.583098
vn 0.945039 -0.266181 0.189867
vn 0.006057 0.385282 0.922779
vn 0.006057 0.385282 0.922779
vn 0.006057 0.385282 0.922779
vn -0.950876 0.309573 -0.000000
vn -0.000000 0.274284 0.961649
vn -0.000000 0.274284 0.961649
vn -0.000000 0.274284 0.961649
vn 0.950876 0.309573 0.000000
vn 0.000000 0.274284 -0.961649
vn 0.000000 0.274284 -0.961649
vn 0.000000 0.274284 -0.961649
vn -0.949389 0.096570 -0.298891
vn 0.000000 1.000000 -0.000886
vn 0.000000 1.000000 -0.000886
vn 0.000000 1.000000 -0.000886
vn 0.952118 0.074683 -0.296468
vn -0.007871 -0.850582 -0.525784
vn -0.007871 -0.850582 -0.525784
vn -0.007871 -0.850582 -0.525784
vn -0.013312 -0.781685 -0.623532
vn -0.013312 -0.781685 -0.623532
vn -0.013312 -0.781685 -0.623532
vn -0.013312 -0.781685 -0.623532
vn -0.011860 0.295053 0.955407
vn -0.011860 0.295053 0.955407
vn -0.011860 0.295053 0.955407
vn -0.011860 0.295053 0.955407
vn -0.008482 -0.782400 0.622719
vn -0.008482 -0.782400 0.622719
vn -0.008482 -0.782400 0.622719
vn -0.008482 -0.782400 0.622719
vn 0.000000 1.000000 -0.000001
vn 0.000000 1.000000 -0.000001
vn 0.000000 1.000000 -0.000001
vn 0.000000 1.000000 -0.000001
vn -0.014790 0.266895 -0.963612
vn -0.014790 0.266895 -0.963612
vn -0.014790 0.266895 -0.963612
vn -0.014790 0.266895 -0.963612
s 1
g pPyramid6
usemtl blinn1SG
f 1/1/1 6/98/2 83/49/3 82/14/4
f 2/3/5 1/2/1 12/110/6 11/86/7
f 3/103/8 2/3/5 26/22/9 25/4/10
s off
f 4/5/11 3/6/12 22/39/13 21/7/14
s 1
f 5/10/15 4/8/16 59/38/17 58/52/18
f 6/9/2 5/10/15 36/51/19 35/11/20
f 7/12/21 12/13/6 82/14/4 81/67/22
f 8/18/23 7/15/21 66/16/24 65/94/25
f 9/17/26 8/18/23 78/76/27 77/19/28
s off
f 10/21/29 9/20/30 16/112/31 15/87/32
s 1
f 11/86/7 10/21/33 27/26/34 26/22/35
s 2
f 13/23/36 18/99/37 90/79/38 89/34/39
f 14/25/40 13/24/36 24/118/41 23/88/42
f 15/87/43 14/25/40 28/41/44 27/26/45
f 17/30/46 16/27/47 77/28/48 80/81/49
f 18/29/37 17/30/46 68/80/50 67/31/51
f 19/32/52 24/33/41 89/34/39 88/56/53
f 20/37/54 19/35/52 46/36/55 45/90/56
f 21/89/57 20/37/54 60/59/58 59/38/59
f 23/88/42 22/39/60 25/40/61 28/41/62
s 1
f 29/42/63 34/102/64 85/68/65 84/48/66
f 30/127/67 29/128/63 40/129/68 39/130/69
f 31/131/70 30/127/67 54/139/71 53/140/72
s off
f 32/160/73 31/158/74 50/157/75 49/161/76
s 1
f 33/45/77 32/43/78 75/65/79 74/70/80
f 34/44/64 33/45/77 62/69/81 61/46/82
f 35/97/20 40/47/68 84/48/66 83/49/3
f 37/50/83 36/51/19 58/52/84 57/53/85
s off
f 38/162/86 37/163/87 44/164/88 43/165/89
s 1
f 39/130/69 38/138/90 55/141/91 54/139/92
s 2
f 41/54/93 46/55/55 88/56/53 87/62/94
f 42/142/95 41/143/93 52/144/96 51/145/97
f 43/146/98 42/142/95 56/154/99 55/155/100
f 45/90/56 44/57/101 57/58/102 60/59/103
f 47/60/104 52/61/96 87/62/94 86/78/105
f 48/64/106 47/63/104 72/126/107 71/93/108
f 49/92/109 48/64/106 76/85/110 75/65/111
f 51/145/97 50/153/112 53/156/113 56/154/114
s 1
f 61/101/82 66/66/24 81/67/22 85/68/65
f 63/119/115 62/69/81 74/70/116 73/71/117
s off
f 64/72/118 63/73/119 70/83/120 69/74/121
s 1
f 65/94/25 64/75/122 79/82/123 78/76/124
s 2
f 67/100/51 72/77/107 86/78/105 90/79/38
f 69/95/125 68/80/50 80/81/126 79/82/127
f 71/93/108 70/83/128 73/84/129 76/85/130
s 1
f 2/3/5 11/86/7 26/22/131
s off
f 10/21/132 15/87/133 27/26/134
s 2
f 14/25/40 23/88/42 28/41/135
s off
f 22/39/136 3/6/137 25/40/138
s 1
f 30/127/67 39/130/69 54/139/139
s off
f 38/162/140 43/165/141 55/166/142
s 2
f 42/142/95 51/145/97 56/154/143
s off
f 50/157/144 31/158/145 53/159/146
s 1
f 36/51/19 5/10/15 58/52/147
s off
f 4/8/148 21/89/149 59/38/150
s 2
f 20/37/54 45/90/56 60/59/151
s off
f 44/57/152 37/91/153 57/58/154
s 1
f 62/69/81 33/45/77 74/70/155
s off
f 32/43/156 49/92/157 75/65/158
s 2
f 48/64/106 71/93/108 76/85/159
s off
f 70/83/160 63/73/161 73/84/162
s 1
f 8/18/23 65/94/25 78/76/163
s off
f 64/75/164 69/95/165 79/82/166
s 2
f 68/80/50 17/30/46 80/81/167
s off
f 16/27/168 9/96/169 77/28/170
s 1
f 35/97/20 83/49/3 6/98/2
s 2
f 90/79/38 18/99/37 67/100/51
s 1
f 12/13/6 1/1/1 82/14/4
s 2
f 41/54/93 87/62/94 52/61/96
s 1
f 29/42/63 84/48/66 40/47/68
f 61/101/82 85/68/65 34/102/64
s 2
f 19/32/52 88/56/53 46/55/55
f 24/33/41 13/23/36 89/34/39
s 1
f 7/12/21 81/67/22 66/66/24
s 2
f 86/78/105 72/77/107 47/60/104
s 1
f 1/2/1 2/3/5 3/103/8 4/104/16 5/105/15 6/106/2
f 7/107/21 8/108/23 9/109/26 10/21/33 11/86/7 12/110/6
s 2
f 13/111/36 14/25/40 15/87/43 16/112/47 17/113/46 18/114/37
f 19/115/52 20/116/54 21/117/57 22/39/60 23/88/42 24/118/41
s off
f 25/4/171 26/22/172 27/26/173 28/41/174
s 1
f 29/128/63 30/127/67 31/131/70 32/132/78 33/133/77 34/134/64
f 35/135/20 36/136/19 37/137/83 38/138/90 39/130/69 40/129/68
s 2
f 41/143/93 42/142/95 43/146/98 44/147/101 45/148/56 46/149/55
f 47/150/104 48/151/106 49/152/109 50/153/112 51/145/97 52/144/96
s off
f 53/167/175 54/168/176 55/169/177 56/170/178
f 57/53/179 58/52/180 59/38/181 60/59/182
s 1
f 61/46/82 62/69/81 63/119/115 64/120/122 65/121/25 66/122/24
s 2
f 67/123/51 68/124/50 69/125/125 70/83/128 71/93/108 72/126/107
s off
f 73/71/183 74/70/184 75/65/185 76/85/186
f 77/19/187 78/76/188 79/82/189 80/81/190
s 1
f 81/67/22 82/14/4 83/49/3 84/48/66 85/68/65
s 2
f 86/78/105 87/62/94 88/56/53 89/34/39 90/79/38
