# This file uses centimeters as units for non-parametric coordinates.

mtllib triangle.mtl
g default
v 4.617944 -6.959710 -19.663850
v 5.050269 -6.986642 -18.975443
v 4.617944 -7.517809 -19.414182
v 4.617944 -7.517812 19.414180
v 5.050269 -6.986645 18.975437
v 4.617944 -6.959712 19.663847
v 4.545293 14.659155 0.336562
v 5.050269 14.321477 -0.000000
v 4.545293 14.659155 -0.336562
v -4.617944 -7.517809 -19.414182
v -5.050269 -6.986642 -18.975443
v -4.617944 -6.959710 -19.663850
v -4.617944 -6.959712 19.663847
v -5.050269 -6.986645 18.975437
v -4.617944 -7.517812 19.414180
v -4.545293 14.659155 -0.336562
v -5.050269 14.321477 -0.000000
v -4.545293 14.659155 0.336562
vt 0.366095 0.686182
vt 0.632186 0.297372
vt 0.632874 0.314758
vt 0.547200 0.297372
vt 0.367632 0.297372
vt 0.457937 0.297372
vt 0.542923 0.297372
vt 0.546565 0.317679
vt 0.366653 0.686182
vt 0.453350 0.686182
vt 0.452370 0.703568
vt 0.632186 0.703568
vt 0.547200 0.703568
vt 0.546565 0.683260
vt 0.457937 0.703568
vt 0.457249 0.686182
vt 0.543559 0.683260
vt 0.542923 0.703568
vt 0.366653 0.314758
vt 0.453350 0.314758
vt 0.457249 0.314758
vt 0.543559 0.317679
vt 0.632874 0.686182
vt 0.193551 0.042995
vt 0.342407 0.297903
vt 0.047219 0.298367
vt 0.817938 0.970466
vt 0.663777 0.719742
vt 0.958838 0.711075
vt 0.366095 0.314758
vt 0.452370 0.297372
vt 0.367632 0.703568
vn -0.000000 -0.408356 -0.912823
vn -0.000000 -0.408356 -0.912823
vn -0.000000 -0.408356 -0.912823
vn -0.000000 -0.408356 -0.912823
vn 0.731976 0.454302 -0.507761
vn 0.731976 0.454302 -0.507761
vn 0.731976 0.454302 -0.507761
vn 0.731976 0.454302 -0.507761
vn 0.775577 -0.631253 -0.000000
vn 0.775577 -0.631253 -0.000000
vn 0.775577 -0.631253 -0.000000
vn 0.775577 -0.631253 -0.000000
vn 0.000000 -0.408353 0.912824
vn 0.000000 -0.408353 0.912824
vn 0.000000 -0.408353 0.912824
vn 0.000000 -0.408353 0.912824
vn 0.731977 0.454301 0.507760
vn 0.731977 0.454301 0.507760
vn 0.731977 0.454301 0.507760
vn 0.731977 0.454301 0.507760
vn 0.000000 1.000000 0.000000
vn 0.000000 1.000000 0.000000
vn 0.000000 1.000000 0.000000
vn 0.000000 1.000000 0.000000
vn -0.775577 -0.631253 -0.000000
vn -0.775577 -0.631253 -0.000000
vn -0.775577 -0.631253 -0.000000
vn -0.775577 -0.631253 -0.000000
vn -0.731976 0.454302 -0.507761
vn -0.731976 0.454302 -0.507761
vn -0.731976 0.454302 -0.507761
vn -0.731976 0.454302 -0.507761
vn -0.731977 0.454301 0.507760
vn -0.731977 0.454301 0.507760
vn -0.731977 0.454301 0.507760
vn -0.731977 0.454301 0.507760
vn -0.000000 -1.000000 -0.000000
vn -0.000000 -1.000000 -0.000000
vn -0.000000 -1.000000 -0.000000
vn -0.000000 -1.000000 -0.000000
vn 0.000000 0.666490 0.745514
vn 0.000000 0.666490 0.745514
vn 0.000000 0.666490 0.745514
vn 0.000000 0.666490 0.745514
vn 0.000000 0.666490 -0.745514
vn 0.000000 0.666490 -0.745514
vn 0.000000 0.666490 -0.745514
vn 0.000000 0.666490 -0.745514
vn 1.000000 0.000000 -0.000000
vn 1.000000 0.000000 -0.000000
vn 1.000000 0.000000 -0.000000
vn -1.000000 0.000000 0.000000
vn -1.000000 0.000000 0.000000
vn -1.000000 0.000000 0.000000
vn 0.819140 -0.234234 -0.523588
vn 0.819140 -0.234234 -0.523589
vn 0.819140 -0.234234 -0.523588
vn 0.819140 -0.234230 0.523589
vn 0.819140 -0.234230 0.523589
vn 0.819140 -0.234230 0.523589
vn 0.555868 0.831271 0.000000
vn 0.555868 0.831271 0.000000
vn 0.555868 0.831271 0.000000
vn -0.819140 -0.234234 -0.523588
vn -0.819140 -0.234234 -0.523588
vn -0.819140 -0.234234 -0.523588
vn -0.819140 -0.234230 0.523590
vn -0.819140 -0.234230 0.523589
vn -0.819140 -0.234230 0.523589
vn -0.555868 0.831271 0.000000
vn -0.555868 0.831271 0.000000
vn -0.555868 0.831271 0.000000
s off
g pPrism1
usemtl blinn3SG
f 1/30/1 3/19/2 10/9/3 12/1/4
f 2/2/5 1/3/6 9/8/7 8/4/8
f 3/19/9 2/5/10 5/31/11 4/20/12
f 4/20/13 6/21/14 13/16/15 15/10/16
f 6/21/17 5/6/18 8/7/19 7/22/20
f 7/22/21 9/8/22 16/14/23 18/17/24
f 11/32/25 10/9/26 15/10/27 14/11/28
f 12/23/29 11/12/30 17/13/31 16/14/32
f 14/15/33 13/16/34 18/17/35 17/18/36
f 3/19/37 4/20/38 15/10/39 10/9/40
f 6/21/41 7/22/42 18/17/43 13/16/44
f 9/8/45 1/3/46 12/23/47 16/14/48
f 2/24/49 8/25/50 5/26/51
f 11/27/52 14/28/53 17/29/54
f 1/30/55 2/5/56 3/19/57
f 4/20/58 5/31/59 6/21/60
f 7/22/61 8/7/62 9/8/63
f 10/9/64 11/32/65 12/1/66
f 13/16/67 14/11/68 15/10/69
f 16/14/70 17/18/71 18/17/72
